# xmcd
#
# Track frame offsets:
#	150
#	12432
#	23615
#	36220
#	51074
#	67474
#	80583
#	89803
#	101940
#	113264
#	123731
#	135289
#	146836
#	157316
#	170872
#	184919
#	196431
#	211828
#	222912
#	236018
#	249750
#	262537
#	276003
#	289315
#	304192
#
# Disc length: 4225 seconds
#
# Revision: 0
# Processed by: cddbd v1.5.1PL2 Copyright (c) Steve Scherf et al.
# Submitted via: dBpowerAMP V4.0
#
DISCID=7b107f19
DTITLE=B B King - Woke up this morning
DYEAR=2004
DGENRE=Blues
TTITLE0=Miss Martha King
TTITLE1=When your baby packs up and goes
TTITLE2=Mistreated woman
TTITLE3=B B´s Boogie
TTITLE4=The other night blues
TTITLE5=Walkin´and cryin´
TTITLE6=My baby´s gone
TTITLE7=Don´t youi want a man like me?
TTITLE8=B B´s blues
TTITLE9=Fine looking woman
TTITLE10=She´s a mean woman
TTITLE11=Hard working woman
TTITLE12=That ain´t the way to do it
TTITLE13=Three o´clock blues
TTITLE14=She don´t move me no more
TTITLE15=Shake it up and go
TTITLE16=My own fault darling
TTITLE17=Gotta find my baby
TTITLE18=Some day, some where
TTITLE19=You know I love you
TTITLE20=Boogie woogie woman
TTITLE21=Woke up this morning (my baby was gone)
TTITLE22=Blind love
TTITLE23=You don´t have to cry (past day)
TTITLE24=Please love me
EXTD=
EXTT0=
EXTT1=
EXTT2=
EXTT3=
EXTT4=
EXTT5=
EXTT6=
EXTT7=
EXTT8=
EXTT9=
EXTT10=
EXTT11=
EXTT12=
EXTT13=
EXTT14=
EXTT15=
EXTT16=
EXTT17=
EXTT18=
EXTT19=
EXTT20=
EXTT21=
EXTT22=
EXTT23=
EXTT24=
PLAYORDER=
